<mxfile host="app.diagrams.net" modified="2024-02-24T19:23:13.971Z" agent="Mozilla/5.0 (Windows NT 10.0; Win64; x64) AppleWebKit/537.36 (KHTML, like Gecko) Chrome/122.0.0.0 Safari/537.36" etag="ZAB_u0k4E6aW83H9Hdoq" version="23.0.1" type="device">
  <diagram name="Page-1" id="ZTEFlr88aqdZfyf9QiEX">
    <mxGraphModel dx="1050" dy="564" grid="1" gridSize="10" guides="1" tooltips="1" connect="1" arrows="1" fold="1" page="1" pageScale="1" pageWidth="850" pageHeight="1100" math="0" shadow="0">
      <root>
        <mxCell id="0" />
        <mxCell id="1" parent="0" />
        <mxCell id="jNttHMfHFWSgpx-Sq936-1" value="MainWindow" style="rounded=1;whiteSpace=wrap;html=1;align=left;fillColor=#dae8fc;strokeColor=#6c8ebf;" vertex="1" parent="1">
          <mxGeometry x="315" y="10" width="220" height="100" as="geometry" />
        </mxCell>
        <mxCell id="jNttHMfHFWSgpx-Sq936-2" value="Login UserControl" style="rounded=1;whiteSpace=wrap;html=1;fillColor=#d5e8d4;strokeColor=#82b366;" vertex="1" parent="1">
          <mxGeometry x="390" y="20" width="140" height="80" as="geometry" />
        </mxCell>
        <mxCell id="jNttHMfHFWSgpx-Sq936-3" value="Dashboard UserControl" style="rounded=1;whiteSpace=wrap;html=1;fillColor=#d5e8d4;strokeColor=#82b366;" vertex="1" parent="1">
          <mxGeometry x="365" y="510" width="140" height="80" as="geometry" />
        </mxCell>
        <mxCell id="jNttHMfHFWSgpx-Sq936-4" value="Validate Username &amp;amp; Password" style="rhombus;whiteSpace=wrap;html=1;" vertex="1" parent="1">
          <mxGeometry x="365" y="140" width="140" height="140" as="geometry" />
        </mxCell>
        <mxCell id="jNttHMfHFWSgpx-Sq936-5" value="" style="endArrow=classic;html=1;rounded=0;exitX=0.5;exitY=1;exitDx=0;exitDy=0;entryX=0.5;entryY=0;entryDx=0;entryDy=0;" edge="1" parent="1" source="jNttHMfHFWSgpx-Sq936-2" target="jNttHMfHFWSgpx-Sq936-4">
          <mxGeometry width="50" height="50" relative="1" as="geometry">
            <mxPoint x="400" y="320" as="sourcePoint" />
            <mxPoint x="450" y="270" as="targetPoint" />
          </mxGeometry>
        </mxCell>
        <mxCell id="jNttHMfHFWSgpx-Sq936-6" value="Valid username &amp;amp; password" style="rounded=0;whiteSpace=wrap;html=1;fillColor=#e1d5e7;strokeColor=#9673a6;" vertex="1" parent="1">
          <mxGeometry x="375" y="320" width="120" height="60" as="geometry" />
        </mxCell>
        <mxCell id="jNttHMfHFWSgpx-Sq936-7" value="" style="endArrow=classic;html=1;rounded=0;exitX=0.5;exitY=1;exitDx=0;exitDy=0;entryX=0.5;entryY=0;entryDx=0;entryDy=0;" edge="1" parent="1" source="jNttHMfHFWSgpx-Sq936-4" target="jNttHMfHFWSgpx-Sq936-6">
          <mxGeometry width="50" height="50" relative="1" as="geometry">
            <mxPoint x="440" y="110" as="sourcePoint" />
            <mxPoint x="445" y="150" as="targetPoint" />
          </mxGeometry>
        </mxCell>
        <mxCell id="jNttHMfHFWSgpx-Sq936-8" value="Invalid username &amp;amp; valid password" style="rounded=0;whiteSpace=wrap;html=1;fillColor=#f8cecc;strokeColor=#b85450;" vertex="1" parent="1">
          <mxGeometry x="220" y="180" width="120" height="60" as="geometry" />
        </mxCell>
        <mxCell id="jNttHMfHFWSgpx-Sq936-9" value="Valid username &amp;amp; valid password" style="rounded=0;whiteSpace=wrap;html=1;fillColor=#f8cecc;strokeColor=#b85450;" vertex="1" parent="1">
          <mxGeometry x="530" y="180" width="120" height="60" as="geometry" />
        </mxCell>
        <mxCell id="jNttHMfHFWSgpx-Sq936-10" value="" style="endArrow=classic;html=1;rounded=0;exitX=0;exitY=0.5;exitDx=0;exitDy=0;entryX=1;entryY=0.5;entryDx=0;entryDy=0;" edge="1" parent="1" source="jNttHMfHFWSgpx-Sq936-4" target="jNttHMfHFWSgpx-Sq936-8">
          <mxGeometry width="50" height="50" relative="1" as="geometry">
            <mxPoint x="445" y="290" as="sourcePoint" />
            <mxPoint x="445" y="330" as="targetPoint" />
          </mxGeometry>
        </mxCell>
        <mxCell id="jNttHMfHFWSgpx-Sq936-11" value="" style="endArrow=classic;html=1;rounded=0;exitX=1;exitY=0.5;exitDx=0;exitDy=0;entryX=0;entryY=0.5;entryDx=0;entryDy=0;" edge="1" parent="1" source="jNttHMfHFWSgpx-Sq936-4" target="jNttHMfHFWSgpx-Sq936-9">
          <mxGeometry width="50" height="50" relative="1" as="geometry">
            <mxPoint x="455" y="300" as="sourcePoint" />
            <mxPoint x="455" y="340" as="targetPoint" />
          </mxGeometry>
        </mxCell>
        <mxCell id="jNttHMfHFWSgpx-Sq936-12" value="Error message is displayed and cannot log in" style="ellipse;whiteSpace=wrap;html=1;fillColor=#fff2cc;strokeColor=#d6b656;" vertex="1" parent="1">
          <mxGeometry x="60" y="170" width="120" height="80" as="geometry" />
        </mxCell>
        <mxCell id="jNttHMfHFWSgpx-Sq936-13" value="Error message is displayed and cannot log in" style="ellipse;whiteSpace=wrap;html=1;fillColor=#fff2cc;strokeColor=#d6b656;" vertex="1" parent="1">
          <mxGeometry x="680" y="170" width="120" height="80" as="geometry" />
        </mxCell>
        <mxCell id="jNttHMfHFWSgpx-Sq936-14" value="" style="endArrow=classic;html=1;rounded=0;exitX=0;exitY=0.5;exitDx=0;exitDy=0;entryX=1;entryY=0.5;entryDx=0;entryDy=0;" edge="1" parent="1" source="jNttHMfHFWSgpx-Sq936-8" target="jNttHMfHFWSgpx-Sq936-12">
          <mxGeometry width="50" height="50" relative="1" as="geometry">
            <mxPoint x="445" y="290" as="sourcePoint" />
            <mxPoint x="445" y="330" as="targetPoint" />
          </mxGeometry>
        </mxCell>
        <mxCell id="jNttHMfHFWSgpx-Sq936-15" value="" style="endArrow=classic;html=1;rounded=0;exitX=1;exitY=0.5;exitDx=0;exitDy=0;entryX=0;entryY=0.5;entryDx=0;entryDy=0;" edge="1" parent="1" source="jNttHMfHFWSgpx-Sq936-9" target="jNttHMfHFWSgpx-Sq936-13">
          <mxGeometry width="50" height="50" relative="1" as="geometry">
            <mxPoint x="455" y="300" as="sourcePoint" />
            <mxPoint x="455" y="340" as="targetPoint" />
          </mxGeometry>
        </mxCell>
        <mxCell id="jNttHMfHFWSgpx-Sq936-16" value="Login successfully and user&#39;s dashboard is displayed" style="ellipse;whiteSpace=wrap;html=1;fillColor=#fff2cc;strokeColor=#d6b656;" vertex="1" parent="1">
          <mxGeometry x="375" y="400" width="120" height="80" as="geometry" />
        </mxCell>
        <mxCell id="jNttHMfHFWSgpx-Sq936-17" value="" style="endArrow=classic;html=1;rounded=0;exitX=0.5;exitY=1;exitDx=0;exitDy=0;entryX=0.5;entryY=0;entryDx=0;entryDy=0;" edge="1" parent="1" source="jNttHMfHFWSgpx-Sq936-6" target="jNttHMfHFWSgpx-Sq936-16">
          <mxGeometry width="50" height="50" relative="1" as="geometry">
            <mxPoint x="445" y="290" as="sourcePoint" />
            <mxPoint x="445" y="330" as="targetPoint" />
          </mxGeometry>
        </mxCell>
        <mxCell id="jNttHMfHFWSgpx-Sq936-18" value="" style="endArrow=classic;html=1;rounded=0;exitX=0.5;exitY=1;exitDx=0;exitDy=0;entryX=0.5;entryY=0;entryDx=0;entryDy=0;" edge="1" parent="1" source="jNttHMfHFWSgpx-Sq936-16" target="jNttHMfHFWSgpx-Sq936-3">
          <mxGeometry width="50" height="50" relative="1" as="geometry">
            <mxPoint x="455" y="300" as="sourcePoint" />
            <mxPoint x="455" y="340" as="targetPoint" />
          </mxGeometry>
        </mxCell>
      </root>
    </mxGraphModel>
  </diagram>
</mxfile>
